# xmcd CD database file
#
# Track frame offsets:
#	150
#	21055
#	43503
#	69324
#	92342
#	114445
#	132355
#	150516
#	179681
#	199999
#	223667
#
# Disc length: 3228 seconds
#
# Revision: 5
# Processed by: cddbd v1.5PL3 Copyright (c) Steve Scherf et al.
# Submitted via: CDex 1.50Beta3
#
DISCID=920c9a0b
DTITLE=工藤静香 - Expose
DYEAR=1994
DGENRE=J-pop
TTITLE0=Blue Rose
TTITLE1=冷めてく音
TTITLE2=夢
TTITLE3=僕よりいい人と…
TTITLE4=naked love
TTITLE5=Jazzyな子猫
TTITLE6=Adamas〜征服されざる者
TTITLE7=I'm nothing to you
TTITLE8=Step
TTITLE9=Pain
TTITLE10=Jaguar Line
EXTD=YEAR: 1994
EXTT0=
EXTT1=
EXTT2=
EXTT3=
EXTT4=
EXTT5=
EXTT6=
EXTT7=
EXTT8=
EXTT9=
EXTT10=
PLAYORDER=
